#!OML:ASF F:\VICON\USERDATA\INSTALL\rory3\rory3.ASF
:FULLY-SPECIFIED
:DEGREES
1284
root -0.853966 15.8589 -2.92563 -20.17 42.3105 -728.064
lowerback 20.8987 1.17736 -6.06072
upperback 10.2444 0.764943 -0.799956
thorax -0.571946 0.33335 2.42062
lowerneck -15.3747 -6.20251 -14.0924
upperneck 28.2644 -5.98934 4.68472
head 12.5746 -3.51193 3.25273
rclavicle -4.29375e-014 3.02153e-014
rhumerus -37.1176 -1.93391 -82.5033
rradius 50.0399
rwrist 13.3011
rhand -31.7169 3.6195
rfingers 7.12502
rthumb -4.97541 -26.3021
lclavicle -4.29375e-014 3.02153e-014
lhumerus -42.5564 -4.70674 74.7751
lradius 71.0814
lwrist 20.5513
lhand -40.9961 26.5175
lfingers 7.12502
lthumb -13.9279 56.031
rfemur -45.5715 -17.4477 24.7024
rtibia 101.816
rfoot 8.11694 -2.82204
rtoes 9.36642
lfemur -78.3198 49.6033 -18.3891
ltibia 139.233
lfoot -10.712 -9.85589
ltoes -12.1489
1285
root -0.866927 15.8534 -2.91583 -19.9904 42.4304 -727.635
lowerback 20.8725 1.23011 -6.36522
upperback 10.1889 0.773962 -0.901859
thorax -0.616526 0.331891 2.48176
lowerneck -15.2438 -6.29547 -14.1926
upperneck 28.1425 -6.15361 4.80595
head 12.5253 -3.57983 3.28933
rclavicle 1.70955e-014 5.24792e-014
rhumerus -37.0797 -1.82394 -82.4039
rradius 50.732
rwrist 13.1553
rhand -31.9874 3.65132
rfingers 7.12502
rthumb -5.23661 -26.264
lclavicle 1.70955e-014 5.24792e-014
lhumerus -41.9863 -4.21933 73.8191
lradius 71.6467
lwrist 19.5446
lhand -41.5247 26.6215
lfingers 7.12502
lthumb -14.4372 56.0993
rfemur -45.1234 -17.3444 24.5006
rtibia 101.74
rfoot 7.6184 -2.39929
rtoes 8.4295
lfemur -78.1489 49.4974 -18.6058
ltibia 139.203
lfoot -10.7157 -9.77027
ltoes -12.5685
1286
root -0.879618 15.8438 -2.90935 -19.7578 42.552 -727.234
lowerback 20.7846 1.26079 -6.59463
upperback 10.1557 0.774039 -1.02144
thorax -0.60539 0.327408 2.4841
lowerneck -15.1077 -6.39605 -14.2741
upperneck 27.8978 -6.35513 4.98947
head 12.4309 -3.65267 3.339
rclavicle -4.45278e-014 7.95139e-015
rhumerus -37.0026 -1.75496 -82.3123
rradius 51.5358
rwrist 13.0952
rhand -32.1362 3.59671
rfingers 7.12502
rthumb -5.38019 -26.315
lclavicle -4.45278e-014 7.95139e-015
lhumerus -41.2639 -3.55545 72.7594
lradius 72.193
lwrist 18.8352
lhand -41.8462 25.5627
lfingers 7.12502
lthumb -14.747 55.0181
rfemur -44.7171 -17.2359 24.351
rtibia 101.628
rfoot 7.21375 -2.03377
rtoes 9.52175
lfemur -78.176 49.299 -18.9676
ltibia 139.193
lfoot -10.7378 -9.5874
ltoes -13.0935
1287
root -0.892388 15.8381 -2.90129 -19.7282 42.6086 -727.081
lowerback 20.6264 1.28108 -6.60825
upperback 10.1928 0.81193 -1.11361
thorax -0.487757 0.344971 2.38725
lowerneck -15.3257 -6.50198 -14.2962
upperneck 27.7957 -6.52824 5.17348
head 12.461 -3.70544 3.37893
rclavicle 1.43125e-014 -1.43125e-014
rhumerus -36.906 -1.76643 -82.2651
rradius 52.3997
rwrist 13.237
rhand -32.7229 3.57246
rfingers 7.12502
rthumb -5.94666 -26.3241
lclavicle 1.43125e-014 -1.43125e-014
lhumerus -40.4387 -2.75318 71.6058
lradius 72.6968
lwrist 17.463
lhand -41.5857 24.578
lfingers 7.12502
lthumb -14.496 54.0516
rfemur -44.191 -17.0237 24.4596
rtibia 101.41
rfoot 6.78799 -1.65119
rtoes 11.3023
lfemur -78.1048 49.3146 -18.986
ltibia 139.188
lfoot -10.7897 -9.56034
ltoes -13.2239
1288
root -0.906987 15.8347 -2.89091 -19.9353 42.6273 -727.226
lowerback 20.5039 1.2549 -6.47983
upperback 10.2373 0.814011 -1.11208
thorax -0.37916 0.347033 2.31763
lowerneck -15.5952 -6.57192 -14.3504
upperneck 27.7856 -6.61664 5.30792
head 12.5295 -3.73077 3.41944
rclavicle 1.82882e-014 1.59028e-015
rhumerus -36.792 -1.65039 -82.2074
rradius 53.214
rwrist 13.6453
rhand -33.8684 3.49778
rfingers 7.12502
rthumb -7.05251 -26.3647
lclavicle 1.82882e-014 1.59028e-015
lhumerus -39.7404 -1.92961 70.5588
lradius 73.4198
lwrist 16.0551
lhand -40.9454 24.2551
lfingers 7.12502
lthumb -13.879 53.7719
rfemur -43.6422 -16.8697 24.8742
rtibia 101.117
rfoot 6.13402 -1.12392
rtoes 10.9905
lfemur -78.0424 49.4726 -18.657
ltibia 139.184
lfoot -10.7374 -9.70836
ltoes -12.9551
1289
root -0.923214 15.8331 -2.87912 -20.0789 42.8106 -727.228
lowerback 20.4889 1.23378 -6.57961
upperback 10.2385 0.772034 -1.07862
thorax -0.365946 0.321462 2.41834
lowerneck -15.5977 -6.64394 -14.4628
upperneck 27.6843 -6.71699 5.40147
head 12.5102 -3.77394 3.4553
rclavicle -1.39149e-014 2.22639e-014
rhumerus -36.7438 -1.45555 -82.0867
rradius 54.0271
rwrist 14.1855
rhand -34.5712 3.0821
rfingers 7.12502
rthumb -7.73087 -26.7566
lclavicle -1.39149e-014 2.22639e-014
lhumerus -39.1697 -1.24081 69.7239
lradius 74.3394
lwrist 14.9973
lhand -40.6551 24.4278
lfingers 7.12502
lthumb -13.5993 53.9637
rfemur -43.1458 -16.9002 25.0707
rtibia 100.865
rfoot 5.524 -0.549965
rtoes 8.45155
lfemur -77.9126 49.3683 -18.4826
ltibia 139.145
lfoot -10.6138 -9.75909
ltoes -12.637
